<svg version="1.0" xmlns="http://www.w3.org/2000/svg" preserveAspectRatio="xMidYMid meet" viewBox="-1.25 -1.25 602.5 115.5">
 <g fill="#000000" stroke="#000000" stroke-width="0.5">
  <path d="M 0 56.50 l 0 -56.50 300 0 300 0 0 56.50 0 56.50 -300 0 -300 0 0 -56.50 z  m 75.25 31.50 c 10.60 0.10 13.15 0 13.60 -0.60 0.30 -0.35 1.05 -2.30 1.55 -4.25 l 1 -3.55 -1.05 -0.30 c -0.60 -0.15 -6.30 -0.30 -12.65 -0.30 l -11.55 0 -3.05 -1.55 c -3.05 -1.50 -5.05 -3.55 -6.90 -6.95 -0.80 -1.50 -0.95 -2.85 -0.95 -9.05 0 -7.25 0 -7.25 1.65 -10.55 2.05 -3.95 5.35 -7.30 9.30 -9.35 l 2.90 -1.55 12.90 0 c 7.10 0 13.25 -0.15 13.70 -0.30 0.90 -0.35 3 -6.90 2.60 -8 -0.20 -0.55 -3.05 -0.65 -16.10 -0.55 -12.20 0.05 -15.90 -0.05 -16.10 -0.55 -0.20 -0.70 -2.60 -0.80 -2.60 -0.10 0 0.30 -0.80 0.50 -1.75 0.50 -0.95 0 -1.75 -0.15 -1.75 -0.35 0 -0.50 -5.35 -0.40 -10.60 0.10 -2.85 0.30 -3.90 0.25 -3.90 -0.20 0 -0.80 -9.55 -0.70 -15.15 0.15 -5 0.75 -5.40 1.10 -6.40 5.15 -0.30 1.45 -0.80 2.65 -1.05 2.65 -0.20 0 -0.40 1 -0.40 2.25 l 0 2.25 1.90 0.05 c 1 0 7.10 0 13.50 -0.05 l 11.60 -0.05 0 2.15 c 0 1.30 -0.55 3.40 -1.35 5.25 l -1.40 3.10 -12.90 0.05 c -11 0 -13.05 0.10 -14.10 0.80 -0.70 0.45 -1.25 1.25 -1.25 1.75 0 0.50 -0.20 1 -0.45 1.15 -0.25 0.15 -0.60 1.25 -0.75 2.40 -0.20 1.20 -0.45 3 -0.60 4.05 l -0.30 1.85 14.40 0 14.45 0 0.90 3.40 c 0.50 1.85 1.05 4.15 1.20 5.15 l 0.25 1.85 -16.05 -0.25 -16.05 -0.25 -1.45 1.20 c -0.85 0.60 -1.50 1.55 -1.50 2.05 -0.05 0.45 -0.25 0.85 -0.55 0.85 -0.25 0 -0.50 0.90 -0.50 2 0 1.10 -0.25 2 -0.55 2 -0.30 0 -0.45 0.85 -0.35 2.15 l 0.15 2.10 16.50 0.30 c 9.10 0.15 20.65 0.15 25.75 0.05 5.10 -0.15 15.10 -0.20 22.25 -0.10 z  m 64.45 -0.30 c 0.90 -0.35 3.05 -6.85 2.60 -7.95 -0.20 -0.65 -1.85 -0.75 -9.90 -0.75 -8.80 0 -9.80 -0.10 -11.30 -1 -2 -1.25 -3.10 -3.65 -3.10 -6.85 0 -1.40 1.65 -8.50 3.95 -16.90 l 3.90 -14.50 10.55 0 c 7.35 0 10.75 -0.20 11.15 -0.60 0.30 -0.30 1 -2.10 1.50 -3.95 0.75 -2.65 0.80 -3.50 0.30 -3.80 -0.30 -0.20 -5.05 -0.40 -10.45 -0.40 l -9.90 0 0 -1.50 c 0 -0.85 0.80 -4.45 1.75 -8.10 0.95 -3.60 1.65 -6.70 1.55 -6.80 -0.30 -0.25 -7.40 1.80 -7.90 2.30 -0.25 0.25 -1.25 3.55 -2.30 7.40 l -1.85 6.95 -5.75 -0.15 c -3.15 -0.10 -6 0.05 -6.30 0.25 -0.30 0.20 -1.05 2.05 -1.55 4.05 -1 3.50 -1 3.65 -0.10 4.10 0.50 0.30 3.05 0.50 5.65 0.50 l 4.80 0 0 1.80 c 0 0.95 -1.55 7.55 -3.50 14.65 -5.25 19.35 -5.20 19.20 -4.25 22.05 1.45 4.35 5.35 7.85 10.10 8.95 2.15 0.50 19.15 0.70 20.35 0.25 z  m 27.25 -0.40 c 0.35 -0.40 3.20 -10.35 6.35 -22.15 5.95 -22.30 6.05 -22.95 4.35 -26.25 -1.20 -2.45 -3.75 -4.95 -6.35 -6.25 -2.25 -1.15 -3.15 -1.30 -7.20 -1.30 -2.55 0 -4.75 0.15 -4.90 0.25 -0.10 0.15 -0.65 1.80 -1.20 3.70 -1.20 4.40 -0.95 4.70 3.75 4.70 4 0 5.60 0.80 7 3.50 1.45 2.80 0.90 5.95 -4.25 25.15 -3.70 13.90 -4.80 18.65 -4.35 18.95 1.10 0.70 6.20 0.45 6.80 -0.30 z  m 115.55 -26.30 c 0.90 -0.30 0.35 -0.40 -2 -0.40 -2.35 0 -2.90 0.10 -2 0.40 0.70 0.20 1.60 0.40 2 0.40 0.40 0 1.30 -0.20 2 -0.40 z  m 5.40 -13.25 c -0.05 -4.10 -0.15 -6.90 -0.25 -6.10 -0.10 0.75 -0.35 1.35 -0.55 1.35 -0.20 0 -0.25 1.60 -0.20 3.50 0.10 2.25 -0.05 3.80 -0.40 4.25 -0.45 0.55 -0.45 0.75 -0.05 0.75 0.35 0 0.55 1.10 0.60 2.90 0 2.05 0.15 2.55 0.45 1.85 0.25 -0.55 0.40 -4.35 0.40 -8.50 z  m -71.40 5.25 c 0.90 -0.30 0.35 -0.40 -2 -0.40 -2.35 0 -2.90 0.10 -2 0.40 0.70 0.20 1.60 0.40 2 0.40 0.40 0 1.30 -0.20 2 -0.40 z  m 19.25 0 c 0.70 -0.30 0.25 -0.45 -1.75 -0.45 -2 0 -2.45 0.15 -1.75 0.45 0.55 0.25 1.35 0.45 1.75 0.45 0.40 0 1.20 -0.20 1.75 -0.45 z  m 13.25 -10.50 c 0 -6.40 -0.20 -10.55 -0.50 -10.75 -0.35 -0.20 -0.50 3.50 -0.50 10.75 0 7.25 0.15 10.95 0.50 10.75 0.30 -0.20 0.50 -4.35 0.50 -10.75 z  m 32.25 10.50 c 0.80 -0.35 0.55 -0.45 -1 -0.45 -1.45 -0.05 -1.80 0.10 -1.25 0.45 0.85 0.55 0.95 0.55 2.25 0 z  m 14.75 -6 c 0 -4 -0.20 -6.50 -0.50 -6.50 -0.30 0 -0.50 2.50 -0.50 6.50 0 4 0.20 6.50 0.50 6.50 0.30 0 0.50 -2.50 0.50 -6.50 z  m 15.75 6 c 0.70 -0.30 0.25 -0.45 -1.75 -0.45 -2 0 -2.45 0.15 -1.75 0.45 0.55 0.25 1.35 0.45 1.75 0.45 0.40 0 1.20 -0.20 1.75 -0.45 z  m 24.25 -9 l 0 -9.50 3.50 0 c 2 0 3.50 -0.20 3.50 -0.50 0 -0.30 -2.85 -0.50 -7.50 -0.50 -4.65 0 -7.50 0.20 -7.50 0.50 0 0.30 1.50 0.50 3.50 0.50 l 3.50 0 0 9.50 c 0 6 0.20 9.50 0.50 9.50 0.30 0 0.50 -3.50 0.50 -9.50 z  m 35 9 c 0.55 -0.35 0.15 -0.50 -1.50 -0.45 -1.70 0 -2 0.10 -1.25 0.45 1.35 0.60 1.85 0.60 2.75 0 z  m 9.95 -5.15 c -0.05 -2.80 -0.25 -5.65 -0.45 -6.35 -0.25 -0.75 -0.40 1.30 -0.45 5.40 -0.05 4.35 0.15 6.55 0.45 6.35 0.30 -0.20 0.50 -2.50 0.45 -5.40 z  m 10.05 0.70 c 0 -2.80 -0.20 -5.15 -0.50 -5.30 -0.30 -0.20 -0.50 1.60 -0.50 4.95 0 3.20 0.20 5.30 0.50 5.30 0.30 0 0.50 -2 0.50 -4.95 z  m 8 -1.55 c 0 -4 -0.20 -6.50 -0.50 -6.50 -0.30 0 -0.50 2.50 -0.50 6.50 0 4 0.20 6.50 0.50 6.50 0.30 0 0.50 -2.50 0.50 -6.50 z  m 15 6 c 0.55 -0.35 0.15 -0.50 -1.50 -0.45 -1.70 0 -2 0.10 -1.25 0.45 1.35 0.60 1.85 0.60 2.75 0 z  m 16.75 0 c 0.70 -0.30 0.25 -0.45 -1.75 -0.45 -2 0 -2.45 0.15 -1.75 0.45 0.55 0.25 1.35 0.45 1.75 0.45 0.40 0 1.20 -0.20 1.75 -0.45 z  m 19.25 -9.50 c 0 -6.35 -0.20 -10 -0.50 -10 -0.30 0 -0.50 3.65 -0.50 10 0 6.35 0.20 10 0.50 10 0.30 0 0.50 -3.65 0.50 -10 z  m 8.95 4.65 c -0.05 -3 -0.25 -5.95 -0.45 -6.65 -0.25 -0.75 -0.40 1.30 -0.45 5.40 -0.05 4.10 0.15 6.60 0.45 6.60 0.30 0 0.50 -2.10 0.45 -5.35 z  m 9.55 -4.85 c -0.35 -0.35 -0.50 1.05 -0.50 4.50 0 6.55 0.70 7.25 0.90 0.90 0.10 -2.90 -0.05 -5.05 -0.40 -5.40 z  m 14.75 9.70 c 0.75 -0.30 0.45 -0.45 -1.25 -0.45 -1.70 0 -2 0.15 -1.25 0.45 0.55 0.25 1.10 0.45 1.25 0.45 0.15 0 0.70 -0.20 1.25 -0.45 z  m 6.75 -10.25 c 0 -6.85 -0.20 -10.75 -0.50 -10.75 -0.30 0 -0.50 2.10 -0.50 5.25 0 3.55 -0.20 5.25 -0.55 5.25 -0.40 0 -0.40 0.20 0.05 0.75 0.35 0.45 0.50 2 0.40 4.25 -0.05 1.90 0 3.50 0.25 3.50 0.20 0 0.35 0.55 0.35 1.25 0 0.70 0.10 1.25 0.25 1.25 0.15 0 0.25 -4.85 0.25 -10.75 z  m 12 10.25 c 0.55 -0.35 0.30 -0.50 -1 -0.50 -1.30 0 -1.55 0.15 -1 0.50 0.40 0.25 0.85 0.50 1 0.50 0.15 0 0.60 -0.25 1 -0.50 z  m 6.20 -4.35 c -0.10 -2.40 -0.15 -5.25 -0.20 -6.30 0 -1.15 -0.20 -1.80 -0.50 -1.60 -0.55 0.35 -0.65 7.90 -0.20 10.85 0.55 3.30 1.05 1.60 0.90 -2.95 z  m 29.05 4.35 c 0.20 -0.30 -0.40 -0.50 -1.45 -0.50 -2.40 0 -2.80 -0.95 -2.80 -6.45 l 0 -4.55 2.25 0 c 1.25 0 2.25 -0.20 2.25 -0.50 0 -0.25 -1 -0.50 -2.25 -0.50 l -2.25 0 0 -2.25 c 0 -1.25 -0.20 -2.25 -0.50 -2.25 -0.25 0 -0.50 1 -0.50 2.25 0 2.15 -0.05 2.25 -1.50 2.25 -0.80 0 -1.50 0.25 -1.50 0.50 0 0.30 0.70 0.50 1.50 0.50 l 1.50 0 0 3.95 c 0 4.55 0.70 6.95 2.20 7.55 1.45 0.60 2.70 0.60 3.05 0 z  m 6.85 -5.15 c 0.10 -2.65 0 -4.85 -0.20 -4.85 -0.20 0 -0.45 -0.60 -0.55 -1.35 -0.10 -0.80 -0.25 1.65 -0.30 5.35 -0.05 7.75 0.80 8.50 1.05 0.85 z  m 12.90 -0.85 c 0 -4 -0.20 -6.50 -0.50 -6.50 -0.30 0 -0.50 2.50 -0.50 6.50 0 4 0.20 6.50 0.50 6.50 0.30 0 0.50 -2.50 0.50 -6.50 z  m 16.90 1.65 l -0.10 -4.90 -0.25 3.75 c -0.15 2.05 -0.20 4.25 -0.10 4.90 0.35 2.35 0.55 0.90 0.45 -3.75 z  m 9.10 -5.85 c 0 -6.65 -0.20 -10.85 -0.50 -11.05 -0.35 -0.20 -0.50 3.50 -0.50 10.70 0 7.05 0.20 11.05 0.50 11.05 0.30 0 0.50 -3.90 0.50 -10.70 z  m -84.40 9.10 c -0.40 -0.40 -0.60 -2.45 -0.60 -6 0 -3.25 -0.20 -5.40 -0.50 -5.40 -0.85 0 -0.65 9.60 0.30 10.90 0.40 0.60 0.90 1.10 1.10 1.10 0.15 0 0.05 -0.25 -0.30 -0.60 z  m 25.40 -1.90 c 0 -0.50 -0.20 -1.10 -0.50 -1.25 -0.30 -0.20 -0.50 0.35 -0.50 1.25 0 0.90 0.20 1.45 0.50 1.25 0.30 -0.15 0.50 -0.75 0.50 -1.25 z  m -317.80 -1.35 c -0.60 -1 -0.90 -2.40 -0.90 -5.20 -0.05 -3.35 -0.15 -3.70 -0.65 -2.80 -0.80 1.40 -0.80 3.95 -0.05 5.70 0.75 1.75 1.95 3.65 2.25 3.65 0.15 0 -0.15 -0.60 -0.65 -1.35 z  m 34.80 -1.65 c 0 -0.70 -0.25 -1.60 -0.50 -2 -0.35 -0.55 -0.50 0.05 -0.50 2 0 1.95 0.15 2.55 0.50 2 0.25 -0.40 0.50 -1.30 0.50 -2 z  m 76 0 c 0 -0.70 -0.25 -1.60 -0.50 -2 -0.35 -0.55 -0.50 0.05 -0.50 2 0 1.95 0.15 2.55 0.50 2 0.25 -0.40 0.50 -1.30 0.50 -2 z  m 119 0 c 0 -0.70 -0.25 -1.60 -0.50 -2 -0.35 -0.55 -0.50 0.05 -0.50 2 0 1.95 0.15 2.55 0.50 2 0.25 -0.40 0.50 -1.30 0.50 -2 z  m -208 -0.10 c -0.05 -1.75 -0.15 -2 -0.55 -1.25 -0.50 0.85 -0.25 3.35 0.30 3.35 0.15 0 0.25 -0.95 0.25 -2.10 z  m 28.40 -1.90 l 0.05 -1.25 -0.75 1.40 c -0.50 0.95 -0.65 1.90 -0.40 2.75 l 0.35 1.35 0.35 -1.50 c 0.20 -0.80 0.40 -2.05 0.40 -2.75 z  m 18.55 1.65 c 0 -2.10 -0.05 -2.25 -0.50 -1.15 -0.45 1.15 -0.25 3.50 0.30 3.50 0.15 0 0.25 -1.05 0.20 -2.35 z  m 29.05 0.25 c -0.05 -1.75 -0.15 -2 -0.55 -1.25 -0.50 0.85 -0.25 3.35 0.30 3.35 0.15 0 0.25 -0.95 0.25 -2.10 z  m 41 0 c -0.05 -1.75 -0.15 -2 -0.55 -1.25 -0.50 0.85 -0.25 3.35 0.30 3.35 0.15 0 0.25 -0.95 0.25 -2.10 z  m 19 0 c -0.05 -1.75 -0.15 -2 -0.55 -1.25 -0.50 0.85 -0.25 3.35 0.30 3.35 0.15 0 0.25 -0.95 0.25 -2.10 z  m 43 0 c -0.05 -1.75 -0.15 -2 -0.55 -1.25 -0.50 0.85 -0.25 3.35 0.30 3.35 0.15 0 0.25 -0.95 0.25 -2.10 z  m 16 0 c -0.05 -1.75 -0.15 -2 -0.55 -1.25 -0.50 0.85 -0.25 3.35 0.30 3.35 0.15 0 0.25 -0.95 0.25 -2.10 z  m 53.95 -0.25 c 0 -2.10 -0.05 -2.25 -0.50 -1.15 -0.45 1.15 -0.25 3.50 0.30 3.50 0.15 0 0.25 -1.05 0.20 -2.35 z  m -208.95 -0.50 c 0 -0.25 -0.25 -0.75 -0.50 -1.15 -0.40 -0.60 -0.50 -0.55 -0.50 0.40 0 0.60 0.25 1.10 0.50 1.10 0.30 0 0.50 -0.15 0.50 -0.35 z  m 89 0 c 0 -0.25 -0.25 -0.75 -0.50 -1.15 -0.40 -0.60 -0.50 -0.55 -0.50 0.40 0 0.60 0.25 1.10 0.50 1.10 0.30 0 0.50 -0.15 0.50 -0.35 z  m 159 -2.50 c -0.05 -1.20 -0.10 -1.30 -0.55 -0.50 -0.25 0.45 -0.35 1.10 -0.20 1.35 0.50 0.85 0.75 0.55 0.75 -0.85 z  m -280.85 -2.70 c -0.95 -0.30 -2 -0.25 -2.75 0 -0.90 0.40 -0.60 0.50 1.60 0.45 2.50 0 2.60 -0.05 1.15 -0.45 z  m 45.95 0 c -0.75 -0.30 -1.50 -0.25 -2 0.05 -0.65 0.35 -0.40 0.45 1.15 0.45 1.75 0 1.85 -0.05 0.85 -0.50 z  m 30.30 -0.05 c -0.95 -0.30 -1.85 -0.30 -2.75 0 -1.25 0.45 -1.05 0.50 1.35 0.50 2.40 0 2.60 -0.05 1.40 -0.50 z  m 59.45 0.05 c -0.60 -0.35 -1.35 -0.35 -2.25 0 -1.25 0.45 -1.20 0.45 0.90 0.50 1.80 0 2.05 -0.10 1.35 -0.50 z  m 43.10 0 c -0.80 -0.30 -1.75 -0.30 -2.50 0 -1 0.40 -0.80 0.50 1.30 0.50 2.15 -0.05 2.30 -0.10 1.20 -0.50 z  m 16.45 -0.05 c -0.95 -0.30 -1.85 -0.30 -2.75 0 -1.25 0.45 -1.05 0.50 1.35 0.50 2.40 0 2.60 -0.05 1.40 -0.50 z  m 52.50 0.05 c -0.60 -0.35 -1.20 -0.35 -1.75 0 -0.75 0.45 -0.60 0.50 0.85 0.50 1.45 0 1.60 -0.05 0.90 -0.50 z  m -266.75 -7 c -1.05 -0.30 -2.25 -0.30 -3.25 0 -1.45 0.40 -1.25 0.45 1.60 0.45 2.85 0 3.05 -0.05 1.65 -0.45 z  m -33.40 -7.45 c 1.95 0 5.75 -4.95 5.75 -7.50 0 -1.35 -3.25 -4.75 -5.45 -5.75 -1.85 -0.80 -2 -0.80 -3.85 0.15 -5.15 2.65 -6.30 7.05 -2.85 10.75 1.55 1.65 4.05 2.95 5.05 2.60 0.40 -0.15 1 -0.25 1.35 -0.25 z "/>
 </g>
 <g fill="#000000" stroke="#000000" stroke-width="0.5">
  <path d="M 41.40 89.65 c -0.50 -0.10 -0.90 -0.55 -0.90 -0.95 0 -0.60 1.85 -0.70 11.50 -0.70 9.45 0 11.50 0.10 11.50 0.70 0 0.35 -0.45 0.80 -1.05 0.95 -1.25 0.35 -19.85 0.35 -21.05 0 z "/>
  <path d="M 8.30 87.40 c -0.40 -1.65 -0.35 -2 0.20 -1.65 0.30 0.20 0.50 -0.60 0.50 -2 0 -1.40 0.20 -2.20 0.50 -2 0.30 0.20 0.50 -0.50 0.50 -1.70 0 -1.15 0.25 -2.05 0.50 -2.05 0.30 0 0.50 -0.35 0.50 -0.75 0 -0.40 0.25 -0.75 0.50 -0.75 0.30 0 0.50 0.90 0.50 2 0 1.10 -0.20 2 -0.50 2 -0.25 0 -0.50 0.80 -0.50 1.75 0 0.95 -0.20 1.75 -0.50 1.75 -0.25 0 -0.50 1 -0.50 2.25 0 2.45 -1.15 3.20 -1.70 1.15 z "/>
  <path d="M 16 57.15 c 0.05 -0.95 1.10 -2.65 1.70 -2.65 0.15 0 0.30 0.80 0.30 1.75 0 1.40 -0.20 1.75 -1 1.75 -0.65 0 -1 -0.35 -1 -0.85 z "/>
  <path d="M 17.60 53.30 c 0.50 -0.35 0.80 -0.75 0.65 -0.85 -0.10 -0.15 0.25 -0.25 0.75 -0.30 0.70 -0.05 1 0.25 1 0.90 0 0.75 -0.35 0.95 -1.60 0.95 -1.50 -0.05 -1.55 -0.10 -0.80 -0.70 z "/>
  <path d="M 256 44.50 c 0 -2.55 1.35 -4 3.75 -4 2.20 0 2.30 1 0.10 2 -1.70 0.80 -2.50 2.50 -1.15 2.50 0.45 0 0.80 0.35 0.80 0.75 0 0.50 -0.55 0.75 -1.75 0.75 -1.70 0 -1.75 -0.05 -1.75 -2 z "/>
  <path d="M 21 43.80 c 0 -0.40 -0.25 -0.80 -0.55 -0.90 -0.70 -0.25 0 -1.90 0.85 -1.90 0.45 0 0.70 0.60 0.70 1.75 0 0.95 -0.20 1.75 -0.50 1.75 -0.25 0 -0.50 -0.30 -0.50 -0.70 z "/>
  <path d="M 21 38.30 c 0 -0.65 0.25 -1.30 0.55 -1.40 0.30 -0.10 0.55 -1 0.60 -2 0 -1 0.25 -1.75 0.45 -1.60 0.20 0.15 0.40 -0.15 0.40 -0.70 0 -0.85 0.80 -1.90 2.75 -3.55 0.65 -0.50 1.15 -0.55 1.95 -0.15 0.65 0.30 1.45 0.30 1.80 0.10 0.40 -0.25 4.45 -0.45 9.05 -0.50 6.40 0 8.40 0.10 8.55 0.60 0.20 0.50 0.60 0.55 1.95 0.05 2.35 -0.80 12.05 -0.80 12.55 0 0.30 0.45 0.40 0.45 0.40 0 0 -0.45 0.90 -0.65 2.75 -0.65 1.50 0 2.75 0.25 2.75 0.50 0 0.30 0.35 0.50 0.75 0.50 0.40 0 0.75 0.35 0.75 0.75 0 0.65 -2.60 0.75 -20.25 0.75 -14.25 0 -20.90 0.20 -22.50 0.60 -2.10 0.55 -2.25 0.70 -2.25 2.25 0 0.90 -0.20 1.65 -0.50 1.65 -0.25 0 -0.50 0.90 -0.50 2 0 1.65 -0.15 2 -1 2 -0.70 0 -1 -0.35 -1 -1.20 z "/>
  <path d="M 179 28.40 c 0 -0.20 -0.35 -0.40 -0.75 -0.40 -0.40 0 -0.75 -0.20 -0.75 -0.50 0 -0.30 1.50 -0.50 3.50 -0.50 2 0 3.50 0.20 3.50 0.50 0 0.30 -0.35 0.50 -0.75 0.50 -0.40 0 -0.75 0.20 -0.75 0.40 0 0.25 -0.90 0.40 -2 0.40 -1.10 0 -2 -0.20 -2 -0.40 z "/>
  <path d="M 175.25 26 c -0.20 -0.30 -0.60 -0.35 -0.90 -0.20 -0.35 0.20 -0.45 0.20 -0.25 -0.05 0.20 -0.20 0.15 -0.70 -0.15 -1.10 -0.45 -0.50 -0.30 -0.65 0.75 -0.65 1.05 0 1.30 0.25 1.30 1.25 0 1.35 -0.25 1.55 -0.75 0.75 z "/>
  <path d="M 173 22.45 c 0 -0.65 -0.20 -0.90 -0.60 -0.65 -0.40 0.25 -0.45 0 -0.25 -0.85 0.20 -0.65 0.35 -1.35 0.35 -1.55 0 -0.25 0.35 -0.40 0.75 -0.40 0.55 0 0.75 0.60 0.75 2.25 0 1.25 -0.20 2.25 -0.50 2.25 -0.25 0 -0.50 -0.45 -0.50 -1.05 z "/>
  <path d="M 188 16.50 l 0 -2 1 1 c 0.55 0.55 1 1.45 1 2 0 0.65 -0.35 1 -1 1 -0.85 0 -1 -0.35 -1 -2 z "/>
 </g>
 <g fill="#686e6f">
  <path d="M 9 83.80 c 0 -0.70 0.25 -1.40 0.50 -1.55 0.30 -0.15 0.50 -0.85 0.50 -1.55 0 -1.45 0.80 -3.20 1.50 -3.20 0.30 0 0.50 0.80 0.50 1.75 0 0.95 -0.20 1.75 -0.50 1.75 -0.25 0 -0.50 0.90 -0.50 2 0 1.65 -0.15 2 -1 2 -0.75 0 -1 -0.35 -1 -1.20 z "/>
  <path d="M 12.75 75 c 0.85 -0.95 1.50 -1 15.20 -1 7.85 0.05 14.80 0.15 15.40 0.30 0.65 0.20 1.15 0.60 1.15 1 0 0.60 -2.70 0.70 -16.35 0.70 -16.30 0 -16.30 0 -15.40 -1 z "/>
  <path d="M 23.90 44.65 c -0.50 -0.15 -0.90 -0.55 -0.90 -0.95 0 -0.60 1.95 -0.70 12.25 -0.70 10.55 0 12.25 0.10 12.25 0.75 0 0.40 -0.30 0.80 -0.60 0.80 -1.85 0.20 -22.30 0.25 -23 0.10 z "/>
  <path d="M 179.40 28.45 c -1.50 -0.85 -1 -1.45 1.10 -1.45 1.45 0 2 0.20 2 0.75 0 0.40 -0.20 0.75 -0.45 0.75 -0.25 0 -0.75 0.10 -1.15 0.25 -0.35 0.10 -1.05 0 -1.50 -0.30 z "/>
 </g>
 <g fill="#4488a5">
  <path d="M 14.50 75.30 c 0 -0.85 1.85 -1.35 3.40 -0.95 2.05 0.50 1.30 1.65 -1.15 1.65 -1.60 0 -2.25 -0.20 -2.25 -0.70 z "/>
  <path d="M 15 61.70 c 0 -1.05 0.90 -2.70 1.50 -2.70 0.30 0 0.50 0.80 0.50 1.75 0 1.40 -0.20 1.75 -1 1.75 -0.55 0 -1 -0.35 -1 -0.80 z "/>
  <path d="M 17 54.50 c 0 -0.50 0.45 -1.20 1 -1.50 0.90 -0.50 1 -0.40 1 1 0 1.15 -0.20 1.50 -1 1.50 -0.65 0 -1 -0.35 -1 -1 z "/>
  <path d="M 66.35 31.65 c -0.20 -0.15 -0.35 -0.75 -0.35 -1.25 0 -0.80 0.45 -0.90 3.50 -0.90 3.10 0 3.50 0.10 3.50 0.95 0 0.55 -0.45 1.05 -1.10 1.25 -1.55 0.40 -5.15 0.40 -5.55 -0.05 z "/>
 </g>
 <g fill="#0c96d8">
  <path d="M 9.10 88.90 c -0.85 -0.85 -0.80 -1.30 0.70 -7.35 1 -4 1.60 -5.50 2.45 -6.15 1.05 -0.80 2.85 -0.90 17.45 -0.90 16.20 -0.05 16.30 -0.05 15.75 -1.05 -0.45 -0.90 -0.40 -1 0.60 -0.85 0.80 0.10 1.90 1.25 3.40 3.40 4.10 6.15 8.30 9.15 14.75 10.80 2.60 0.65 3.30 1 3.30 1.75 0 0.90 -1.15 0.90 -28.90 0.95 -22 0 -29.05 -0.15 -29.50 -0.60 z "/>
  <path d="M 44 67.75 c 0 -0.65 -1.95 -0.75 -14.40 -0.75 -14.40 0 -14.45 0 -14.95 -1.10 -0.45 -1.05 -0.10 -2.90 2 -10.10 1.10 -3.85 0.90 -3.80 15.70 -3.80 11.35 0 13.15 -0.10 13.15 -0.75 0 -0.40 0.35 -0.75 0.75 -0.75 0.55 0 0.75 0.55 0.75 1.90 0 1.05 -0.35 3.20 -0.75 4.75 -0.40 1.60 -0.75 4.80 -0.75 7.10 0 3.45 -0.15 4.25 -0.75 4.25 -0.40 0 -0.75 -0.35 -0.75 -0.75 z "/>
  <path d="M 47.90 45.75 l 0.20 -1.25 -13.40 0 -13.45 0 -0.50 -1.10 c -0.30 -0.65 -0.35 -1.70 -0.15 -2.40 0.20 -0.70 0.80 -2.95 1.40 -5 1.30 -4.60 1.55 -5.10 3.05 -5.85 1.75 -0.90 41.20 -0.90 43.10 0 1.50 0.70 1.85 2.35 0.45 2.35 -1.55 0 -9 4.15 -11.85 6.65 -1.55 1.35 -3.70 3.65 -4.80 5.15 -1.40 1.90 -2.30 2.70 -3.15 2.70 -0.95 0 -1.10 -0.20 -0.90 -1.25 z "/>
  <path d="M189.95 19.80 C 189.95 24.60 186.05 28.50 181.25 28.50 176.45 28.50 172.60 24.60 172.60 19.80 172.60 15.05 176.45 11.15 181.25 11.15 186.05 11.15 189.95 15.05 189.95 19.80 Z M178 27.95 "/>
 </g>
 <g fill="#8e8d8d">
 </g>
 <g fill="#38a5d8">
  <path d="M 32.50 44 c 0 -0.30 2.60 -0.50 6.75 -0.50 4.15 0 6.75 0.20 6.75 0.50 0 0.30 -2.60 0.50 -6.75 0.50 -4.15 0 -6.75 -0.20 -6.75 -0.50 z "/>
 </g>
 <g fill="#aaaaaa">
 </g>
 <g fill="#89d0f2">
 </g>
 <g fill="#c5c6c6">
 </g>
 <g fill="#dee2e3">
  <path d="M 465.50 87.90 c 0 -0.85 -0.15 -0.95 -0.60 -0.50 -0.65 0.65 -3.40 0.85 -3.40 0.20 0 -0.65 4 -3.10 5.05 -3.10 0.80 0 0.95 0.35 0.95 2.25 0 1.90 -0.15 2.25 -1 2.25 -0.70 0 -1 -0.35 -1 -1.10 z "/>
  <path d="M 371.75 76 c 0.65 -0.70 1.55 -1 3.10 -1 1.80 0 2.15 0.15 2.15 1 0 0.90 -0.35 1 -3.10 1 -3 0 -3.05 0 -2.15 -1 z "/>
  <path d="M 70 40.40 c 0 -1.25 0.20 -1.40 1.70 -1.40 3.05 0 4.80 0.55 4.80 1.50 0 0.75 -0.50 0.95 -3.25 1.10 l -3.25 0.15 0 -1.35 z "/>
 </g>
 <g fill="#fbfcfc">
  <path d="M 62.50 88.25 c -2.05 -0.60 -4.70 -1.55 -5.85 -2.15 -4.60 -2.40 -10.85 -10.45 -12.15 -15.65 -0.75 -2.90 -0.35 -12.50 0.60 -16.95 2.30 -10.30 12.20 -19.90 23.65 -22.95 3.05 -0.80 5.30 -0.90 17.20 -0.85 12.10 0.05 13.75 0.15 14.20 0.85 0.60 1 -1.40 9.10 -2.50 10.25 -0.60 0.55 -2.90 0.70 -11.30 0.70 -6.05 0 -11.45 -0.25 -12.55 -0.55 -1.05 -0.30 -2.10 -0.35 -2.25 -0.10 -0.15 0.25 -1.80 1.20 -3.65 2.10 -4.10 2.05 -7.65 5.65 -9.70 9.80 -1.35 2.80 -1.45 3.40 -1.45 8.75 0 4.70 0.15 6.05 0.95 7.50 1.70 3.20 3.70 5.30 6.40 6.80 l 2.65 1.45 12.90 0.25 c 10.25 0.20 13 0.40 13.30 0.95 0.50 0.75 -1.60 9.30 -2.55 10.40 -0.45 0.60 -2.85 0.70 -12.35 0.60 -10.25 -0.15 -12.30 -0.30 -15.55 -1.20 z "/>
  <path d="M 117.85 88.95 c -6.85 -1.60 -11.40 -7.70 -10.70 -14.40 0.20 -1.55 2.15 -9.50 4.35 -17.65 2.20 -8.20 4 -15 4 -15.15 0 -0.15 -2.25 -0.25 -4.95 -0.25 -4 0 -5.15 -0.15 -5.95 -0.85 l -1.05 -0.90 1.30 -4.75 c 0.65 -2.60 1.50 -4.90 1.80 -5.15 0.35 -0.20 3.20 -0.35 6.35 -0.30 l 5.75 0.10 1.85 -6.95 c 1.05 -3.75 2.10 -7.10 2.30 -7.30 0.55 -0.55 8.95 -2.90 10.25 -2.90 0.50 0 1 0.35 1.15 0.75 0.25 0.60 -2.65 12.90 -3.70 15.65 -0.15 0.45 2 0.60 9.75 0.60 7.30 0 10.20 0.15 10.85 0.65 0.80 0.60 0.80 0.85 -0.25 4.95 -0.55 2.40 -1.35 4.75 -1.70 5.25 -0.60 0.80 -1.75 0.90 -11.30 1 l -10.70 0.10 -3.95 14.85 c -3.90 14.45 -3.95 14.85 -3.25 16.85 0.45 1.30 1.30 2.50 2.40 3.20 1.60 1.10 2.15 1.15 11.25 1.15 9.75 0 10.80 0.20 10.80 1.95 0 1.55 -2.15 8.65 -2.85 9.35 -0.60 0.55 -2.70 0.70 -11.30 0.65 -5.85 -0.05 -11.45 -0.25 -12.50 -0.50 z "/>
  <path d="M 158.25 88.70 c -0.40 -0.45 -0.70 -1.20 -0.55 -1.65 2.35 -8.20 10.30 -38.80 10.30 -39.55 0 -1.50 -1.25 -3.75 -2.80 -4.95 -1.05 -0.85 -2.05 -1.05 -4.95 -1.05 -2.90 0 -3.75 -0.20 -4.45 -0.95 -0.80 -0.90 -0.80 -1.20 0.40 -5.55 0.70 -2.55 1.40 -4.75 1.55 -4.95 0.20 -0.15 3.05 -0.30 6.40 -0.30 5.65 0 6.30 0.10 8.65 1.35 4.60 2.40 7.10 6.10 7.50 11.05 0.25 2.80 -0.25 5.10 -5.50 24.50 -3.15 11.80 -6 21.75 -6.35 22.15 -0.85 1.05 -9.10 1 -10.20 -0.10 z "/>
  <path d="M 203.50 78.50 l 0 -10.50 4.30 0 c 4.35 0 5.60 0.35 7.60 2.15 1.70 1.55 1.55 4.85 -0.35 6.95 -1.35 1.50 -1.70 1.65 -5.25 1.80 l -3.80 0.20 0 4.95 c 0 4.95 0 4.95 -1.25 4.95 l -1.25 0 0 -10.50 z  m 8.75 -2.20 c 1.60 -0.70 1.75 -0.95 1.75 -2.70 0 -1.75 -0.20 -2.10 -1.70 -2.80 -0.95 -0.45 -2.75 -0.80 -4 -0.80 l -2.30 0 0 3.50 0 3.50 2.25 0 c 1.25 0 3.05 -0.35 4 -0.70 z "/>
  <path d="M 219.50 81.95 c 0 -7 0 -7 1.15 -6.85 0.75 0.10 1.05 0.45 0.95 1.05 -0.20 1.10 0 1.05 1.40 -0.15 1.50 -1.30 4.65 -1.40 4.40 -0.15 -0.10 0.50 -0.85 1 -1.90 1.20 -2.90 0.60 -3.50 1.85 -3.50 7.25 0 4.70 0 4.70 -1.25 4.70 l -1.25 0 0 -7.05 z "/>
  <path d="M241.75 82 C 241.75 85.90 238.55 89.10 234.60 89.10 230.70 89.10 227.50 85.90 227.50 82 227.50 78.05 230.70 74.85 234.60 74.85 238.55 74.85 241.75 78.05 241.75 82 Z M231.05 88.15  M239.50 82 C 239.50 79.25 237.30 77.05 234.55 77.05 231.80 77.05 229.60 79.25 229.60 82 229.60 84.75 231.80 86.95 234.55 86.95 237.30 86.95 239.50 84.75 239.50 82 Z M238.35 85.25 "/>
  <path d="M 245.55 83.15 l 0.05 -5.90 -1.40 -0.25 c -1.85 -0.35 -1.90 -1.70 -0.05 -1.90 1.20 -0.15 1.35 -0.35 1.35 -2.05 0 -4.10 1.60 -6.05 5 -6.05 1.15 0 1.50 0.25 1.50 1 0 0.75 -0.35 1 -1.45 1 -1.85 0 -2.40 0.75 -2.60 3.50 -0.20 2.20 -0.15 2.25 1.45 2.40 1.20 0.10 1.60 0.40 1.60 1.15 0 0.70 -0.35 0.95 -1.50 0.95 l -1.50 0 0 6 0 6 -1.30 0 -1.25 0 0.10 -5.85 z "/>
  <path d="M 253.70 88.25 c -0.45 -1.15 0.15 -2.25 1.20 -2.25 1.40 0 2.15 1 1.55 2.10 -0.60 1.10 -2.35 1.20 -2.75 0.15 z "/>
  <path d="M 267.50 78.50 l 0 -10.50 1.25 0 1.25 0 0 10.50 0 10.50 -1.25 0 -1.25 0 0 -10.50 z "/>
  <path d="M 275.15 88 c -1.80 -1.10 -2 -1.60 -0.95 -2.45 0.50 -0.40 0.95 -0.30 1.95 0.45 1.50 1.20 3.95 1.30 4.90 0.20 1 -1.20 0 -2.30 -2.75 -3 -3.05 -0.80 -4.30 -1.95 -4.30 -3.90 0.05 -2.65 2.05 -4.30 5.20 -4.30 1.95 0 4.70 1.95 4.10 2.90 -0.50 0.80 -1.75 0.75 -2.60 -0.15 -1.65 -1.60 -5.10 -0.35 -4.50 1.60 0.25 0.75 1.05 1.25 2.95 1.65 1.45 0.35 3.10 1.10 3.75 1.65 1.10 1 1.45 3.10 0.70 4.15 -1.55 2.25 -5.75 2.85 -8.45 1.20 z "/>
  <path d="M 287.40 88 c -1.10 -0.80 -1.40 -1.50 -1.40 -2.95 0 -3.35 2.40 -5.05 7.15 -5.05 1.50 0 1.85 -0.20 1.85 -1 0 -1.90 -2.85 -2.40 -6.80 -1.25 -0.75 0.25 -1.15 0.05 -1.40 -0.50 -0.70 -1.85 6.05 -3.05 8.45 -1.45 1.70 1.10 2.25 3.20 2.25 8.50 0 4.35 -0.05 4.70 -1 4.70 -0.70 0 -1 -0.35 -1 -1.10 0 -1 -0.05 -1.05 -1 -0.15 -0.55 0.50 -2.05 1 -3.35 1.10 -1.95 0.20 -2.65 0.05 -3.75 -0.85 z  m 6.45 -2.10 c 0.60 -0.65 1.15 -1.70 1.25 -2.40 0.10 -1.05 -0.05 -1.30 -1.35 -1.40 -2.25 -0.25 -5.15 0.75 -5.50 1.95 -0.85 2.60 3.60 4.05 5.60 1.85 z "/>
  <path d="M 301.80 87.95 c -1.50 -1.20 -1.80 -4.05 -0.55 -5.80 0.85 -1.25 3.55 -2.15 6.40 -2.15 2.05 0 2.45 -0.85 1.05 -2.20 -0.90 -0.90 -3.80 -1.05 -5.30 -0.25 -0.80 0.45 -1.20 0.40 -1.80 -0.25 -0.70 -0.70 -0.60 -0.85 1.05 -1.55 2.45 -1 5.25 -0.95 7.15 0.20 1.80 1.10 2.20 2.60 2.20 8.95 0 3.70 -0.10 4.10 -0.95 4.10 -0.55 0 -1.05 -0.45 -1.20 -1.10 l -0.30 -1.10 -1.20 1.10 c -1.55 1.45 -4.70 1.50 -6.55 0.05 z  m 5.95 -1.55 c 1.20 -0.55 2.40 -3.15 1.85 -4.10 -0.30 -0.55 -4.70 -0.05 -6.10 0.70 -1.20 0.65 -1.30 1.85 -0.15 3.10 0.95 1.05 2.55 1.15 4.40 0.30 z "/>
  <path d="M 318.75 88.50 c -0.55 -0.20 -1.55 -1 -2.20 -1.70 -1.65 -1.75 -2.10 -6.65 -0.85 -8.55 1.95 -2.95 6.20 -4.10 9.30 -2.50 1.80 0.95 2.10 2.55 0.40 2 -2.50 -0.75 -4 -0.85 -5.45 -0.25 -1.60 0.70 -2.95 2.75 -2.95 4.50 0 1.45 1.35 3.85 2.45 4.50 1.30 0.65 3.85 0.65 5.15 -0.05 0.80 -0.45 1.20 -0.40 1.80 0.20 0.65 0.70 0.55 0.85 -1.15 1.55 -2 0.85 -4.90 1 -6.50 0.30 z "/>
  <path d="M 336.35 88.65 c -0.20 -0.15 -0.35 -4.90 -0.35 -10.50 l 0 -10.15 4.25 0 c 6.15 0 8.75 1.65 8.75 5.50 0 3.55 -2.65 5.50 -7.50 5.50 l -3 0 0 5 c 0 4.50 -0.10 5 -0.90 5 -0.50 0 -1.10 -0.15 -1.25 -0.35 z  m 8.65 -12.40 c 1.30 -0.65 1.50 -1.05 1.50 -2.75 0 -1.70 -0.20 -2.10 -1.50 -2.75 -0.80 -0.40 -2.60 -0.75 -4 -0.75 l -2.50 0 0 3.50 0 3.50 2.50 0 c 1.40 0 3.20 -0.35 4 -0.75 z "/>
  <path d="M365.25 82.05 C 365.25 86 362.05 89.20 358.10 89.20 354.15 89.20 350.95 86 350.95 82.05 350.95 78.05 354.15 74.85 358.10 74.85 362.05 74.85 365.25 78.05 365.25 82.05 Z M354.65 88.30  M363.05 82 C 363.05 79.25 360.80 77 358.05 77 355.30 77 353.05 79.25 353.05 82 353.05 84.75 355.30 86.95 358.05 86.95 360.80 86.95 363.05 84.75 363.05 82 Z M361.55 85.55 "/>
  <path d="M 368.35 88.65 c -0.20 -0.15 -0.35 -3.35 -0.35 -7 0 -6.70 0 -6.70 1.15 -6.55 0.75 0.10 1.05 0.45 0.95 1.05 -0.20 1.10 0.20 1.10 1.75 -0.15 0.95 -0.75 2.05 -1 4.15 -1 l 2.85 0 -0.25 -1.50 c -0.20 -1.35 -0.05 -1.50 1.10 -1.50 1.10 0 1.30 0.20 1.30 1.45 0 1.35 0.15 1.50 1.90 1.65 2.55 0.20 2.55 1.60 -0.05 1.80 l -1.90 0.15 0.15 4.85 0.15 4.85 1.65 0 c 1.35 0 1.60 0.20 1.60 1.10 0 1 -0.25 1.15 -1.95 1.15 -1.55 0 -2.20 -0.30 -3 -1.30 -0.90 -1.15 -1.05 -2.05 -1.05 -6 l 0 -4.70 -1.45 0 c -0.80 0 -1.60 -0.30 -1.75 -0.60 -0.25 -0.50 -0.35 -0.50 -0.60 0 -0.15 0.30 -0.55 0.60 -0.90 0.60 -0.40 0 -1.25 0.45 -2 1.05 -1.25 1 -1.30 1.20 -1.30 6 0 4.45 -0.10 4.95 -0.90 4.95 -0.50 0 -1.10 -0.15 -1.25 -0.35 z "/>
  <path d="M 387.30 87.95 c -1.60 -1.40 -1.85 -3.75 -0.65 -5.65 0.90 -1.35 3.50 -2.30 6.50 -2.30 1.50 0 1.85 -0.20 1.85 -1 0 -1.60 -2.10 -2.30 -5.05 -1.70 -1.95 0.40 -2.60 0.40 -3 -0.15 -0.75 -0.85 2.25 -2.15 5.05 -2.15 4.25 0 5.50 2.10 5.50 9.30 0 4.35 -0.05 4.70 -1 4.70 -0.70 0 -1 -0.35 -1 -1.10 0 -1 -0.05 -1.05 -1 -0.15 -0.55 0.50 -2.05 1 -3.40 1.15 -2 0.15 -2.65 0 -3.80 -0.95 z  m 6.55 -2.05 c 0.60 -0.65 1.15 -1.70 1.25 -2.40 0.15 -1.15 -0.05 -1.25 -1.85 -1.40 -2.15 -0.10 -4.10 0.65 -4.95 2 -0.40 0.65 -0.30 1.10 0.40 1.85 1.30 1.40 3.80 1.40 5.15 -0.05 z "/>
  <path d="M 401.50 78 c 0 -10.65 0.05 -11 1 -11 0.95 0 1 0.35 1 11 0 10.65 -0.05 11 -1 11 -0.95 0 -1 -0.35 -1 -11 z "/>
  <path d="M 415 78.45 l 0 -10.55 4.95 0.20 c 5.85 0.20 7.50 1 8.30 4.15 0.60 2.55 -0.80 5.30 -3.10 6 -0.90 0.25 -1.65 0.65 -1.65 0.95 0 0.25 1.25 2.45 2.75 4.95 1.50 2.45 2.75 4.55 2.75 4.70 0 0.10 -0.60 0.15 -1.35 0.05 -1.35 -0.15 -2.40 -1.55 -5.50 -7.50 -1.10 -2.15 -1.45 -2.40 -2.95 -2.40 l -1.70 0 0 5 0 5 -1.25 0 -1.25 0 0 -10.55 z  m 9.95 -2.65 c 0.60 -0.55 1.05 -1.55 1.05 -2.30 0 -2.15 -1.60 -3.20 -5.30 -3.40 l -3.20 -0.20 0 3.60 0 3.60 3.20 -0.20 c 2.25 -0.15 3.55 -0.50 4.25 -1.10 z "/>
  <path d="M444.75 82.05 C 444.75 86 441.60 89.15 437.65 89.15 433.70 89.15 430.50 86 430.50 82.05 430.50 78.10 433.70 74.90 437.65 74.90 441.60 74.90 444.75 78.10 444.75 82.05 Z M433.65 88  M442.50 82 C 442.50 79.25 440.30 77.05 437.55 77.05 434.80 77.05 432.60 79.25 432.60 82 432.60 84.75 434.80 86.95 437.55 86.95 440.30 86.95 442.50 84.75 442.50 82 Z M441.35 85.25 "/>
  <path d="M 448 78 c 0 -10.65 0.05 -11 1 -11 0.95 0 1 0.35 1 11 0 10.65 -0.05 11 -1 11 -0.95 0 -1 -0.35 -1 -11 z "/>
  <path d="M 456.45 88 c -1.25 -0.65 -2.10 -1.60 -2.65 -3 -1.05 -2.65 -1 -3.75 0.20 -6.25 1.70 -3.50 6.45 -4.85 9.90 -2.75 l 1.60 1 0 -5.05 c 0 -4.90 0 -5 1.15 -4.85 0.60 0.10 1.05 0.30 1 0.55 -0.10 0.20 -0.15 5.10 -0.15 10.90 0 9.75 -0.05 10.50 -0.85 10.35 -0.65 -0.15 -0.85 -0.60 -0.75 -1.55 0.10 -0.95 -0.10 -1.35 -0.60 -1.35 -0.45 0 -0.65 0.30 -0.50 0.70 0.40 1 -2.30 2.30 -4.65 2.30 -1.05 -0.05 -2.70 -0.50 -3.70 -1 z  M465.55 82.05 C 465.55 79.25 463.30 77 460.50 77 457.70 77 455.45 79.25 455.45 82.05 455.45 84.85 457.70 87.10 460.50 87.10 463.30 87.10 465.55 84.85 465.55 82.05 Z M464.30 85.45 "/>
  <path d="M 472.35 88 c -1.20 -0.95 -1.40 -1.40 -1.25 -3.40 0.20 -2.95 1.65 -4.10 5.80 -4.45 2.60 -0.25 3.10 -0.45 3.10 -1.25 0 -1.40 -2.30 -2.10 -5.15 -1.55 -1.80 0.35 -2.50 0.35 -2.90 -0.20 -0.75 -0.90 2.25 -2.15 5.20 -2.15 1.75 0 2.45 0.30 3.60 1.55 1.45 1.45 1.50 1.70 1.65 7 0.20 5.25 0.20 5.45 -0.85 5.45 -0.75 0 -1.05 -0.30 -1.05 -1.10 0 -1 -0.05 -1.05 -1 -0.15 -0.55 0.50 -2.05 1 -3.35 1.10 -1.95 0.20 -2.65 0.05 -3.80 -0.85 z  m 6.50 -2.10 c 0.65 -0.65 1.15 -1.65 1.15 -2.50 0 -1.30 -0.15 -1.40 -1.85 -1.40 -2.20 0 -4.05 0.85 -4.85 2.15 -0.45 0.75 -0.35 1.10 0.65 1.90 1.55 1.25 3.45 1.20 4.90 -0.15 z "/>
  <path d="M 486 82 c 0 -6.65 0.05 -7 1 -7 0.65 0 1 0.35 1 1 0 1 0 1 1.65 0 2.20 -1.35 4.95 -1.30 6.65 0.20 1.35 1.10 1.40 1.40 1.60 7 l 0.25 5.80 -1.35 0 -1.30 0 0 -5.15 c 0 -4.40 -0.15 -5.30 -0.90 -6 -1.30 -1.20 -3.30 -1.05 -4.95 0.35 -1.30 1.15 -1.40 1.45 -1.55 6 -0.20 4.30 -0.30 4.80 -1.15 4.80 -0.90 0 -0.95 -0.45 -0.95 -7 z "/>
  <path d="M 475.50 72 c 0 -1.25 2.65 -4 3.80 -4 1.55 0 1.50 0.10 -0.35 1.95 -1.90 1.90 -3.45 2.80 -3.45 2.05 z "/>
  <path d="M 276.90 62.50 c -0.70 -0.20 -2 -0.80 -2.80 -1.30 l -1.55 -0.90 1.05 -1.50 c 0.60 -0.85 1.10 -1.60 1.20 -1.70 0.05 -0.10 0.95 0.30 2 0.85 4.40 2.35 8.70 0.50 8.70 -3.65 l 0 -1.20 -1.85 0.95 c -6.80 3.50 -13.80 -4.05 -10.25 -11.05 1 -2.05 4.15 -4 6.50 -4 1.90 0 5.10 1.20 5.10 1.95 0 0.30 0.20 0.55 0.40 0.55 0.25 0 0.40 -0.50 0.40 -1.10 -0.05 -1 0.25 -1.15 1.85 -1.30 l 1.90 -0.15 -0.15 9.45 -0.15 9.50 -1.55 1.95 c -0.85 1.05 -2.30 2.15 -3.25 2.50 -1.95 0.70 -5.55 0.75 -7.55 0.15 z  M285.35 47 C 285.35 44.65 283.45 42.70 281.05 42.70 278.70 42.70 276.80 44.65 276.80 47 276.80 49.35 278.70 51.30 281.05 51.30 283.45 51.30 285.35 49.35 285.35 47 Z M284.20 49.95 "/>
  <path d="M 210.20 54.30 c -4.90 -1.55 -7.70 -5.55 -7.70 -10.90 0.05 -3.80 1.35 -6.65 4.15 -8.80 3.75 -3 10.25 -3.35 13.95 -0.80 2.20 1.55 2.25 2.40 0.30 3.60 -1.25 0.75 -1.40 0.75 -2.45 -0.15 -1.50 -1.40 -6.35 -1.40 -8.25 0.05 -2.55 1.85 -3.40 3.45 -3.30 6.25 0.10 5.90 6.55 9.45 11.30 6.20 2.20 -1.50 2.20 -1.50 3.95 -0.05 l 1.40 1.15 -1.75 1.55 c -2.90 2.55 -7.30 3.25 -11.60 1.90 z "/>
  <path d="M242.40 47 C 242.40 51.60 238.70 55.30 234.10 55.30 229.50 55.30 225.80 51.60 225.80 47 225.80 42.40 229.50 38.70 234.10 38.70 238.70 38.70 242.40 42.40 242.40 47 Z M230.50 54.45  M238.35 47.05 C 238.35 44.65 236.45 42.75 234.05 42.75 231.70 42.75 229.75 44.65 229.75 47.05 229.75 49.40 231.70 51.30 234.05 51.30 236.45 51.30 238.35 49.40 238.35 47.05 Z M237.20 49.95 "/>
  <path d="M 246.35 42.65 l 0.10 -12.40 1.90 0 1.90 0 0 12.25 0 12.25 -2 0.15 -2 0.15 0.10 -12.40 z "/>
  <path d="M 258.80 54.50 c -4.30 -1.35 -6.65 -7 -4.55 -11 1.95 -3.75 7.55 -5.55 11.25 -3.65 2.30 1.20 4 3.80 4 6.20 l 0 1.95 -6 0 c -6.60 0 -7.10 0.25 -4.70 2.70 1.65 1.60 4.05 1.70 5.85 0.25 1.40 -1.05 2.50 -0.85 3.80 0.70 1.50 1.80 -6 4.05 -9.65 2.85 z  m 6.60 -10.35 c -0.40 -2.10 -5.20 -2.85 -6.90 -1.15 -1.70 1.70 -1.20 2 3.05 2 3.55 0 4 -0.10 3.85 -0.85 z "/>
  <path d="M 293.50 54.75 c 0 -0.15 -0.05 -3.70 -0.05 -7.85 l 0 -7.65 2 -0.15 2.05 -0.15 0 8 0 8.05 -2 0 c -1.10 0 -2 -0.10 -2 -0.25 z "/>
  <path d="M318.35 47.05 C 318.35 51.60 314.65 55.35 310.05 55.35 305.45 55.35 301.75 51.60 301.75 47.05 301.75 42.45 305.45 38.70 310.05 38.70 314.65 38.70 318.35 42.45 318.35 47.05 Z M306.50 54.45  M314.30 46.95 C 314.30 44.60 312.35 42.70 310 42.70 307.65 42.70 305.75 44.60 305.75 46.95 305.75 49.30 307.65 51.20 310 51.20 312.35 51.20 314.30 49.30 314.30 46.95 Z M313.25 49.75 "/>
  <path d="M 333.50 45.50 l 0 -9.50 -3.70 0 -3.75 0 0.15 -1.85 0.10 -1.90 9.20 0 9.20 0 0 1.75 0.05 1.75 -3.60 0.15 -3.65 0.15 0 9.45 0 9.50 -2 0 -2 0 0 -9.50 z "/>
  <path d="M 347.80 54.50 c -4.55 -1.40 -6.85 -7.60 -4.15 -11.50 1.70 -2.55 3.40 -3.55 6.40 -3.80 4.65 -0.45 8.45 2.60 8.45 6.85 l 0 1.95 -6 0 c -6.60 0 -7.10 0.25 -4.70 2.70 1.65 1.60 4.05 1.70 5.90 0.25 l 1.30 -1 1.55 1.10 1.55 1.10 -1.15 0.90 c -2.25 1.75 -6.05 2.35 -9.15 1.45 z  m 6.70 -9.80 c 0 -2.60 -5.05 -3.55 -7.25 -1.40 -1.35 1.40 -0.80 1.70 3.25 1.70 2.20 0 4 -0.15 4 -0.30 z "/>
  <path d="M 366.50 54.45 c -4.15 -1.65 -6.25 -7.05 -4.25 -10.95 1.90 -3.70 6.95 -5.45 10.90 -3.75 2.45 1.05 2.80 2 1.20 3.60 -1.20 1.20 -1.30 1.25 -2.40 0.45 -3.15 -2.20 -7.20 0.70 -6.25 4.45 0.60 2.30 4.50 3.50 6.65 2 1 -0.70 1.15 -0.65 2.15 0.75 1.25 1.75 1.05 2.25 -1.35 3.25 -2 0.85 -4.80 0.90 -6.65 0.20 z "/>
  <path d="M 378.35 47.15 l 0.10 -7.90 1.75 -0.15 c 1.55 -0.15 1.80 0 1.80 0.90 l 0 1.05 1.45 -1 c 2.50 -1.80 6.85 -1.05 8.45 1.45 0.30 0.45 0.60 3.65 0.65 7.05 l 0.15 6.20 -2.10 0.15 -2.10 0.15 0 -5.70 c 0 -4.90 -0.15 -5.80 -0.90 -6.50 -1.15 -1.05 -2.60 -1.10 -3.90 -0.15 -0.80 0.60 -1 1.50 -1.20 6.40 l -0.25 5.65 -2 0.15 -2 0.15 0.10 -7.90 z "/>
  <path d="M 396.35 47.15 l 0.10 -7.90 2 -0.15 2.05 -0.15 0 8 0 8.05 -2.10 0 -2.15 0 0.10 -7.85 z "/>
  <path d="M 409.50 54.45 c -4.15 -1.65 -6.25 -7.05 -4.25 -10.95 2 -3.80 7.55 -5.60 11.20 -3.60 2.20 1.20 2.30 1.55 0.90 3.25 -1.10 1.40 -1.15 1.45 -2.65 0.55 -4.15 -2.40 -8.35 2.85 -4.90 6.05 1.55 1.40 3.90 1.65 5.50 0.50 0.95 -0.65 1.15 -0.60 2.15 0.80 1.30 1.75 1.10 2.20 -1.30 3.20 -2 0.85 -4.80 0.90 -6.65 0.20 z "/>
  <path d="M437.40 47 C 437.40 51.60 433.65 55.30 429.05 55.30 424.45 55.30 420.75 51.60 420.75 47 420.75 42.40 424.45 38.70 429.05 38.70 433.65 38.70 437.40 42.40 437.40 47 Z M425.50 54.45  M433.35 47.05 C 433.35 44.70 431.40 42.80 429.05 42.80 426.70 42.80 424.80 44.70 424.80 47.05 424.80 49.40 426.70 51.35 429.05 51.35 431.40 51.35 433.35 49.40 433.35 47.05 Z M432.20 49.95 "/>
  <path d="M 447.50 43.50 l 0 -11.50 2 0 2 0 0 11.50 0 11.50 -2 0 -2 0 0 -11.50 z "/>
  <path d="M 456.35 47.15 l 0.05 -7.90 1.80 -0.15 c 1.55 -0.15 1.80 0 1.80 0.90 l 0 1.05 1.45 -1 c 2.50 -1.80 6.85 -1.05 8.45 1.45 0.30 0.45 0.60 3.65 0.65 7.05 l 0.10 6.20 -1.95 0 -1.95 0 -0.15 -5.50 c -0.10 -4.20 -0.35 -5.65 -0.95 -6.35 -1 -1.10 -2.55 -1.15 -4.05 -0.10 -1.05 0.70 -1.10 1.15 -1.10 6.50 l 0 5.70 -2.10 0 -2.15 0 0.10 -7.85 z "/>
  <path d="M 479 54.45 c -2.80 -1.15 -4.50 -4 -4.50 -7.65 0 -2.85 1.40 -5.35 3.75 -6.65 2.50 -1.40 4.70 -1.45 7.25 -0.15 l 2 1 0 -5.25 0 -5.25 2 0 2 0 0 12.30 0 12.25 -1.85 -0.15 c -1.65 -0.15 -1.90 -0.30 -1.75 -1.30 l 0.10 -1.15 -1.55 1.10 c -1.80 1.25 -5.55 1.70 -7.45 0.90 z  M487.35 47 C 487.35 44.60 485.40 42.70 483.05 42.70 480.70 42.70 478.75 44.60 478.75 47 478.75 49.35 480.70 51.25 483.05 51.25 485.40 51.25 487.35 49.35 487.35 47 Z M486.20 49.95 "/>
  <path d="M 497.90 54.20 c -0.75 -0.40 -1.60 -1.10 -1.85 -1.60 -0.25 -0.50 -0.55 -3.70 -0.60 -7.10 l -0.15 -6.25 2.10 -0.15 2.10 -0.15 0 5.40 c 0 3.60 0.20 5.65 0.60 6.05 0.90 0.90 3.15 0.75 4.35 -0.25 0.90 -0.80 1.05 -1.55 1.15 -5.90 l 0.15 -5 2.05 -0.15 2 -0.15 0 7.90 -0.05 7.90 -1.85 0.15 c -1.75 0.15 -1.90 0.05 -1.90 -1.10 0 -1.60 -0.15 -1.60 -1.70 -0.05 -1.45 1.45 -4.25 1.65 -6.40 0.45 z "/>
  <path d="M 515.20 54.30 c -2.20 -0.95 -2.50 -1.70 -1.20 -3.05 l 1.05 -1.15 1.90 1.05 c 2.40 1.30 4.55 0.90 4.55 -0.85 0 -1.10 -0.35 -1.30 -2.80 -1.85 -3.75 -0.85 -5.20 -2.05 -5.20 -4.25 0 -2.40 0.75 -3.65 2.75 -4.50 2.20 -0.90 4.80 -0.90 7 0 2.05 0.90 2.25 1.95 0.50 3.10 -1.10 0.75 -1.30 0.75 -2 0 -1.50 -1.50 -4.50 -0.75 -4.15 1 0.10 0.65 1.05 1.15 3.35 1.75 1.70 0.45 3.50 1.20 3.90 1.60 1 1 1.10 4.45 0.15 5.60 -1.75 2.15 -6.70 2.90 -9.80 1.55 z "/>
  <path d="M 532.70 54.50 c -1.50 -0.60 -2.20 -3 -2.20 -7.55 l 0 -3.95 -1.50 0 c -1.40 0 -1.50 -0.10 -1.50 -2 0 -1.90 0.10 -2 1.50 -2 1.45 0 1.50 -0.10 1.50 -2.25 l 0 -2.25 2 0 2 0 0 2.25 0 2.25 2.25 0 2.25 0 0 2 0 2 -2.25 0 -2.25 0 0 3.05 c 0 3.95 0.55 4.95 2.80 4.95 1.75 0 1.75 0.05 1.60 1.90 l -0.15 1.85 -2.50 0.10 c -1.35 0.05 -3 -0.10 -3.55 -0.35 z "/>
  <path d="M 541.50 54.90 c 0 -0.10 -0.05 -3.65 -0.05 -7.90 l -0.05 -7.75 2.10 -0.15 c 2.10 -0.15 2.10 -0.15 1.80 1.20 l -0.35 1.35 1.55 -1.35 c 1.05 -0.85 2.15 -1.30 3.30 -1.30 1.65 0 1.70 0.05 1.70 2 0 1.95 -0.05 2 -1.70 2 -0.90 0 -2.25 0.45 -2.95 1 -1.25 1 -1.30 1.35 -1.45 5.90 l -0.15 4.85 -1.85 0.15 c -1.05 0.10 -1.90 0.10 -1.90 0 z "/>
  <path d="M 554.35 47.15 l 0.15 -7.90 2 -0.15 2 -0.15 0 8 0 8.05 -2.10 0 -2.15 0 0.10 -7.85 z "/>
  <path d="M 563.70 54.30 c -2.85 -1.25 -3.30 -5.25 -0.90 -7.40 1.20 -1.05 4.35 -1.90 7.10 -1.90 2.40 0 2.80 -0.95 1 -2.20 -1.40 -1 -3.25 -1 -5.10 -0.05 -1.30 0.70 -1.55 0.70 -2.40 -0.05 -1.30 -1.25 -1.15 -1.65 1.25 -2.70 2.40 -1.10 6.05 -1.30 7.80 -0.35 2.55 1.30 3.05 2.65 3.30 9.25 l 0.20 6.10 -1.95 0 c -1.65 0 -2 -0.15 -2 -1 0 -1 0 -1 -1.60 0 -1.90 1.15 -4.45 1.25 -6.70 0.30 z  m 7.25 -3.60 c 1.45 -1.85 1.35 -2.70 -0.40 -2.70 -4.10 0 -6.40 1.55 -4.75 3.20 1.25 1.30 3.95 1 5.15 -0.50 z "/>
  <path d="M 580.35 42.60 l 0.05 -12.35 1.95 0 1.90 0 0.15 12.40 0.10 12.35 -2.10 0 -2.15 0 0.10 -12.40 z "/>
  <path d="M 260.45 35.15 c 1.15 -2.15 2.90 -3.20 5 -3.05 l 2.05 0.15 -2.30 1.90 c -1.50 1.20 -2.85 1.85 -3.80 1.85 -1.20 0 -1.35 -0.15 -0.95 -0.85 z "/>
  <path d="M 293.60 35.40 c -0.85 -0.85 -0.75 -2.75 0.20 -3.10 1.80 -0.70 4.20 0.30 4.20 1.70 0 1.60 -3.20 2.60 -4.40 1.40 z "/>
  <path d="M 349.45 35.15 c 1.25 -2.30 2.55 -3.15 4.90 -3.15 1.30 0 2.20 0.10 2.10 0.20 -2.50 2.35 -4.80 3.80 -6 3.80 -1.25 0 -1.40 -0.15 -1 -0.85 z "/>
  <path d="M 396.25 35 c -0.85 -0.95 -0.85 -1.05 0 -2 1.15 -1.25 2.85 -1.30 3.90 -0.10 1.05 1.15 1.05 1.35 0.05 2.30 -1.05 1.10 -2.85 1 -3.95 -0.20 z "/>
  <path d="M 554.30 35.20 c -0.45 -0.40 -0.80 -0.95 -0.80 -1.20 0 -0.75 1.55 -2 2.50 -2 1.75 0 2.50 0.60 2.50 2 0 2 -2.65 2.80 -4.20 1.20 z "/>
 </g>
</svg>